<svg width="24" height="24" viewBox="0 0 24 24" fill="none" xmlns="http://www.w3.org/2000/svg">
<path d="M9.53033 13.4697C9.23744 13.1768 8.76256 13.1768 8.46967 13.4697C8.17678 13.7626 8.17678 14.2374 8.46967 14.5303L9.53033 13.4697ZM11 16L10.4697 16.5303C10.7626 16.8232 11.2374 16.8232 11.5303 16.5303L11 16ZM15.5303 12.5303C15.8232 12.2374 15.8232 11.7626 15.5303 11.4697C15.2374 11.1768 14.7626 11.1768 14.4697 11.4697L15.5303 12.5303ZM19 7H18.25V19H19H19.75V7H19ZM17 21V20.25H7V21V21.75H17V21ZM5 19H5.75V7H5H4.25V19H5ZM7 5V5.75H9V5V4.25H7V5ZM15 5V5.75H17V5V4.25H15V5ZM7 21V20.25C6.30964 20.25 5.75 19.6904 5.75 19H5H4.25C4.25 20.5188 5.48122 21.75 7 21.75V21ZM19 19H18.25C18.25 19.6904 17.6904 20.25 17 20.25V21V21.75C18.5188 21.75 19.75 20.5188 19.75 19H19ZM19 7H19.75C19.75 5.48122 18.5188 4.25 17 4.25V5V5.75C17.6904 5.75 18.25 6.30964 18.25 7H19ZM5 7H5.75C5.75 6.30964 6.30964 5.75 7 5.75V5V4.25C5.48122 4.25 4.25 5.48122 4.25 7H5ZM9 14L8.46967 14.5303L10.4697 16.5303L11 16L11.5303 15.4697L9.53033 13.4697L9 14ZM11 16L11.5303 16.5303L15.5303 12.5303L15 12L14.4697 11.4697L10.4697 15.4697L11 16ZM11 3V3.75H13V3V2.25H11V3ZM13 7V6.25H11V7V7.75H13V7ZM11 7V6.25C10.3096 6.25 9.75 5.69036 9.75 5H9H8.25C8.25 6.51878 9.48122 7.75 11 7.75V7ZM15 5H14.25C14.25 5.69036 13.6904 6.25 13 6.25V7V7.75C14.5188 7.75 15.75 6.51878 15.75 5H15ZM13 3V3.75C13.6904 3.75 14.25 4.30964 14.25 5H15H15.75C15.75 3.48122 14.5188 2.25 13 2.25V3ZM11 3V2.25C9.48122 2.25 8.25 3.48122 8.25 5H9H9.75C9.75 4.30964 10.3096 3.75 11 3.75V3Z" fill="#747C87"/>
</svg>
