<svg width="70" height="40" viewBox="0 0 70 40" fill="none" xmlns="http://www.w3.org/2000/svg">
<path d="M6.79352 0L0 40H70L66.7692 11.1758L49.1984 7.90303V16.4848C50 15.8384 50.8907 15.3293 51.8785 14.9657C52.8988 14.5939 53.9433 14.4162 55.0202 14.4162C57.5789 14.4162 59.6275 15.2646 61.166 16.9535C62.7368 18.6424 63.5223 20.9374 63.5223 23.8222C63.5223 25.8182 63.1336 27.5717 62.3644 29.0828C61.5951 30.5616 60.5344 31.6929 59.1741 32.4929C57.8138 33.2929 56.2915 33.6889 54.5992 33.6889C52.413 33.6889 50.5182 33.0747 48.915 31.8465L48.8664 33.2283H40.8259V29.7697H43.5547V9.80202H40.8745V6.35152L6.79352 0ZM15.749 11.2808C14.7287 11.2808 13.9028 10.9737 13.2551 10.3596C12.6073 9.74545 12.2834 8.96162 12.2834 8.00808C12.2834 7.02222 12.6073 6.22222 13.2551 5.60808C13.9028 4.99394 14.7368 4.68687 15.749 4.68687C16.7692 4.68687 17.5789 4.99394 18.2024 5.60808C18.8502 6.22222 19.1741 7.02222 19.1741 8.00808C19.2065 8.96162 18.8988 9.74545 18.251 10.3596C17.5951 10.9737 16.7611 11.2808 15.749 11.2808ZM10.6154 29.7778H13.4332V18.3354H10.664V14.8768H19.0283V29.7778H21.7085V33.2364H10.6154V29.7778ZM32.9555 33.2364C29.166 33.2364 27.2713 31.4182 27.2713 27.798V18.3434H24.6802V14.8848H27.2227V8.8404L32.8583 7.64444V14.8848H37.247V18.3434H32.8583V26.9576C32.8583 27.9434 33.0283 28.6465 33.3684 29.0828C33.7085 29.4788 34.2915 29.6808 35.1255 29.6808H37.4818V33.2283H32.9555V33.2364ZM56.3158 28.1131C55.4251 29.0667 54.251 29.5434 52.8016 29.5434C51.4737 29.5434 50.2753 29.1475 49.1984 28.3475V20C50.2753 19.1111 51.5061 18.6586 52.8988 18.6586C54.3482 18.6586 55.5061 19.1354 56.3644 20.0889C57.2551 21.0424 57.7085 22.3758 57.7085 24.105C57.7004 25.7939 57.2389 27.1273 56.3158 28.1131Z" fill="#747C87"/>
</svg>
